<svg id="Layer_1" data-name="Layer 1" xmlns="http://www.w3.org/2000/svg" viewBox="0 0 512 512"><defs><style>.cls-1{fill:#2291d0;}.cls-2{fill:#fff;}</style></defs><circle class="cls-1" cx="256" cy="256" r="256"/><circle class="cls-2" cx="255.87" cy="222.11" r="24.7"/><circle class="cls-2" cx="255.87" cy="308.16" r="24.7"/><circle class="cls-2" cx="341.91" cy="222.11" r="24.7"/><circle class="cls-2" cx="255.87" cy="136.07" r="24.7"/><circle class="cls-2" cx="169.83" cy="222.11" r="24.7"/><path class="cls-2" d="M88.61,222.12,256,54.72l167.39,167.4L297.91,347.72l-5.85,83.77H437.35V350.06h-9q-1.6,19.15-11.45,26.07t-29.53,6.92H315.48l.78-17.56A129.68,129.68,0,0,0,335.63,360L473.49,222.12,256.13,4.75l-.13.13-.13-.13L38.51,222.12,176.37,360l2.39.86,2.38.81,2.42.76,2.26.67,2.59.71c.66.17,1.31.34,2,.49q2.66.68,5.36,1.21v17.56H125.49q-21.3,0-29.27-5.85-11.73-8.52-13.31-27.14h-9v81.43H219.15l-5.06-83.77Z"/></svg>
