<svg id="Layer_1" data-name="Layer 1" xmlns="http://www.w3.org/2000/svg" viewBox="0 0 2096 512"><defs><style> .cls-1{fill:#2291d0;}.cls-2{fill:#fff;}.cls-3{fill:none;stroke:#1d1d1b;stroke-miterlimit:10;stroke-width:8px;} </style></defs><circle class="cls-1" cx="256" cy="256" r="256" /><circle class="cls-2" cx="255.87" cy="222.11" r="24.7" /><circle class="cls-2" cx="255.87" cy="308.16" r="24.7" /><circle class="cls-2" cx="341.91" cy="222.11" r="24.7" /><circle class="cls-2" cx="255.87" cy="136.07" r="24.7" /><circle class="cls-2" cx="169.83" cy="222.11" r="24.7" /><path class="cls-2" d="M88.61,222.12,256,54.72l167.39,167.4L297.91,347.72l-5.85,83.77H437.35V350.06h-9q-1.6,19.15-11.45,26.07t-29.53,6.92H315.48l.78-17.56A129.68,129.68,0,0,0,335.63,360L473.49,222.12,256.13,4.75l-.13.13-.13-.13L38.51,222.12,176.37,360l2.39.86,2.38.81,2.42.76,2.26.67,2.59.71c.66.17,1.31.34,2,.49q2.66.68,5.36,1.21v17.56H125.49q-21.3,0-29.27-5.85-11.73-8.52-13.31-27.14h-9v81.43H219.15l-5.06-83.77Z" /><path class="cls-1" d="M851.06,139.2V283.77a35.34,35.34,0,0,1-35.71,35.72H654.08a35.53,35.53,0,0,1-35.72-35.72V139.2a35.28,35.28,0,0,1,35.72-35.42H815.35C835.51,103.78,851.06,119.33,851.06,139.2Zm-80.92,18.72c0-4.61-3.75-8.64-8.07-8.64H706.49c-4,0-7.78,4-7.78,8.64V265.05c0,4.9,3.75,8.64,7.78,8.64h55.58a8.38,8.38,0,0,0,8.07-8.64Z" /><path class="cls-1" d="M1210.77,319.49h-80.06V149.57h-7.49l-25.63,169.92H999.1L974,149.28h-7.78V319.49H886.2V139.2a35.28,35.28,0,0,1,35.71-35.42h76.32c6.34,0,31.11,2.3,35.71,30.24L1048.63,253l14.11-118.65s2.59-30.53,41.76-30.53l70.85.29a35.21,35.21,0,0,1,35.42,35.42Z" /><path class="cls-1" d="M1433.4,246.62H1326.84v18.15c0,4.89,3.45,8.92,7.49,8.92H1451v45.8H1281.62a35.65,35.65,0,0,1-35.42-35.72V139.2a35.4,35.4,0,0,1,35.42-35.42H1451v45.5H1334.33c-4,0-7.49,4-7.49,9.22v42.91H1433.4Z" /><path class="cls-1" d="M1634.71,175.49V157.92c0-4.61-3.46-8.64-7.49-8.64h-55.87c-4,0-7.49,4-7.49,8.64V264.48c0,4.89,3.46,8.93,7.49,8.93h55.87c4,0,7.49-3.75,7.49-8.64V246.33H1593V201.41h82.37c6,0,40.89-2.59,40.89,36v46.36a35.9,35.9,0,0,1-35.71,35.72H1518.94a36.2,36.2,0,0,1-36-36V139.2c0-19.58,16.41-35.42,36-35.42H1680.5a35.65,35.65,0,0,1,35.71,35.42v36.29Z" /><path class="cls-1" d="M1893.91,282.91l-65.38-.29-4.32,36.87h-82.08l23-182.88s3.46-32.54,42.63-32.54h110.87c36.58,0,39.17,32.25,39.17,32.25l23,183.17h-82.37Zm-5.48-45.22-10.36-81.79s-.29-6.62-8.35-6.62h-16.13a8.91,8.91,0,0,0-9.22,7.2l-9.79,81.21Z" /><line class="cls-3" x1="612.09" y1="346.94" x2="1978.52" y2="346.94" /><path class="cls-1" d="M635.13,430.62c0,2.88-.14,6.62-6,6.55h-8.21c-5.83.07-6-3.67-6-6.55V381.29c0-2.88.14-6.69,6-6.69h8.21c5.84,0,6,3.81,6,6.69ZM628,383.09c0-1.08.07-1.29-1.44-1.29h-3.1c-1.51,0-1.44.21-1.44,1.29v45.73c0,1.08-.07,1.29,1.44,1.29h3.1c1.51,0,1.44-.21,1.44-1.29Z" /><path class="cls-1" d="M658.1,388.28h-1.59v48.89h-7.13V384.75a3.74,3.74,0,0,1,4-3.75h7.49a4,4,0,0,1,4.18,4l4.17,44.93h1.59V381h7.06v52.28a3.73,3.73,0,0,1-3.89,3.89h-7.42c-4.1,0-4.18-4.32-4.25-5.33Z" /><path class="cls-1" d="M711.59,430v7.2h-13c-5.83,0-6-3.67-6-6.55V381h7.13v47.82c0,1-.07,1.15,1.44,1.15Z" /><path class="cls-1" d="M731.39,437.17h-7.06V380.93h7.06Z" /><path class="cls-1" d="M754.43,388.28h-1.59v48.89h-7.12V384.75a3.74,3.74,0,0,1,4-3.75h7.49a4,4,0,0,1,4.17,4l4.18,44.93h1.58V381h7.06v52.28a3.73,3.73,0,0,1-3.89,3.89h-7.42c-4.1,0-4.17-4.32-4.25-5.33Z" /><path class="cls-1" d="M796,405.49h10.15v7.2H796v16.13c0,1-.07,1.15,1.44,1.15h10.51v7.2h-13c-5.83,0-6.12-3.74-6.12-6.55V387.56c0-2.88.29-6.56,6.12-6.56h13v7.21H797.41c-1.51,0-1.44.14-1.44,1.15Z" /><path class="cls-1" d="M875.1,437.17h-7.2v-55.3h-1.58l-4.47,55.3h-6.33L851,381.87h-1.51v55.3h-7.2V378.48a3.81,3.81,0,0,1,4-3.88h5.69c1.36,0,4.1-.08,4.46,3.81l1.87,20.74h.87L861,378.48a4.06,4.06,0,0,1,4.25-3.88h5.54c.79,0,4.32.28,4.32,3.88Z" /><path class="cls-1" d="M896.48,405.49h10.15v7.2H896.48v16.13c0,1-.07,1.15,1.44,1.15h10.52v7.2h-13c-5.83,0-6.12-3.74-6.12-6.55V387.56c0-2.88.29-6.56,6.12-6.56h13v7.21H897.92c-1.51,0-1.44.14-1.44,1.15Z" /><path class="cls-1" d="M941.92,430.62c0,2.88-.15,6.55-6,6.55H927.8c-5.83,0-6-3.67-6-6.55V387.49c0-2.81.22-6.56,6-6.56h8.14c5.83,0,6,3.75,6,6.56v10.72h-7.06v-8.85c0-1.08.07-1.3-1.44-1.3h-3.1c-1.58,0-1.44.22-1.44,1.3v39.46c0,1-.14,1.15,1.44,1.15h3.1c1.51,0,1.44-.14,1.44-1.15V412.69H931v-7.2h6.05c.87,0,4.83-.07,4.83,4.39Z" /><path class="cls-1" d="M972.37,384.39l3.31,52.78h-7.2L967.91,427h-6.12l-.65,10.15h-7.2l3.38-52.42a3.59,3.59,0,0,1,3.89-3.82h6.91C972.3,380.93,972.3,383.81,972.37,384.39Zm-5,35.5-1.94-31.83h-1.23l-2,31.83Z" /><path class="cls-1" d="M1008.66,430.62c0,2.88-.15,6.55-6,6.55h-8.14c-5.83,0-6-3.67-6-6.55V387.49c0-2.81.21-6.56,6-6.56h8.14c5.83,0,6,3.75,6,6.56v10.72h-7.06v-8.85c0-1.08.07-1.3-1.44-1.3h-3.09c-1.59,0-1.44.22-1.44,1.3v39.46c0,1-.15,1.15,1.44,1.15h3.09c1.51,0,1.44-.14,1.44-1.15V412.69h-3.81v-7.2h6c.87,0,4.83-.07,4.83,4.39Z" /><path class="cls-1" d="M1039.11,384.39l3.32,52.78h-7.2l-.58-10.15h-6.12l-.65,10.15h-7.2l3.38-52.42a3.59,3.59,0,0,1,3.89-3.82h6.92C1039,380.93,1039,383.81,1039.11,384.39Zm-5,35.5-2-31.83H1031l-2,31.83Z" /><path class="cls-1" d="M1087.79,437.17h-7.06v-49h-1.66l-4.53,49h-6.34l-4.46-49h-1.59v49H1055V384.75a3.7,3.7,0,0,1,3.89-3.82h5.84c1.29,0,4-.14,4.32,3.82l1.94,20.67h.79l1.87-20.67c.22-.72.58-3.82,4.32-3.82h5.48c.93,0,4.32.22,4.32,3.82Z" /><path class="cls-1" d="M1108.88,405.49H1119v7.2h-10.15v16.13c0,1-.07,1.15,1.44,1.15h10.51v7.2h-13c-5.83,0-6.12-3.74-6.12-6.55V387.56c0-2.88.29-6.56,6.12-6.56h13v7.21h-10.51c-1.51,0-1.44.14-1.44,1.15Z" /><path class="cls-1" d="M1172,384.39l3.31,52.78h-7.2l-.57-10.15h-6.12l-.65,10.15h-7.2l3.38-52.42a3.59,3.59,0,0,1,3.89-3.82h6.91C1171.88,380.93,1171.88,383.81,1172,384.39Zm-5,35.5L1165,388.06h-1.23l-2,31.83Z" /><path class="cls-1" d="M1197,388.28h-1.59v48.89h-7.13V384.75a3.74,3.74,0,0,1,4-3.75h7.49a4,4,0,0,1,4.18,4l4.18,44.93h1.58V381h7.06v52.28a3.73,3.73,0,0,1-3.89,3.89h-7.42c-4.1,0-4.18-4.32-4.25-5.33Z" /><path class="cls-1" d="M1251.37,423.63c0,1.73-.36,3.24-5.62,12a4.57,4.57,0,0,1-3.82,1.58h-10.72V380.93h14.18c5.83,0,6,3.68,6,6.56Zm-10.16,5.12,2.45-4a3.38,3.38,0,0,0,.65-2.08V389.29c0-1.08.07-1.3-1.44-1.3h-4.54v41.84h1.23A1.82,1.82,0,0,0,1241.21,428.75Z" /><path class="cls-1" d="M1293.63,405.49h10.08v7.2h-10.08v16.13c0,1-.15,1.15,1.44,1.15h10.51v7.2h-13c-5.83,0-6.12-3.67-6.12-6.55V381.29c0-2.88.29-6.69,6.12-6.55h13v7.06h-10.51c-1.59,0-1.44.21-1.44,1.29Z" /><path class="cls-1" d="M1351.73,437.17h-7v-49H1343l-4.54,49h-6.33l-4.47-49h-1.58v49H1319V384.75a3.7,3.7,0,0,1,3.89-3.82h5.83c1.3,0,4-.14,4.32,3.82l2,20.67h.79l1.87-20.67c.22-.72.58-3.82,4.32-3.82h5.47c.94,0,4.32.22,4.32,3.82Z" /><path class="cls-1" d="M1382.69,384.39l3.31,52.78h-7.2l-.57-10.15h-6.12l-.65,10.15h-7.2l3.38-52.42a3.59,3.59,0,0,1,3.89-3.82h6.91C1382.62,380.93,1382.62,383.81,1382.69,384.39Zm-5,35.5-1.94-31.83h-1.23l-2,31.83Z" /><path class="cls-1" d="M1405.51,437.17h-7V380.93h7Z" /><path class="cls-1" d="M1438.56,430v7.2h-13c-5.83,0-6-3.67-6-6.55V381h7.13v47.82c0,1-.07,1.15,1.44,1.15Z" /><path class="cls-1" d="M1485.79,412.69H1482v-7.2h6c.87,0,4.83-.15,4.83,4.32v20.81c0,2.88-.14,6.55-6,6.55h-8.06c-5.84,0-6.12-3.67-6.12-6.55V381.15c0-2.74.28-6.55,6.12-6.55h8.06c5.84,0,6,3.81,6,6.55v17.06h-7.06V383c0-.94.07-1.15-1.44-1.15h-3c-1.66,0-1.44.21-1.44,1.15v45.87c0,1-.22,1.15,1.44,1.15h3c1.51,0,1.44-.14,1.44-1.15Z" /><path class="cls-1" d="M1523.52,384.39l3.31,52.78h-7.2l-.57-10.15h-6.12l-.65,10.15h-7.2l3.38-52.42a3.59,3.59,0,0,1,3.89-3.82h6.91C1523.45,380.93,1523.45,383.81,1523.52,384.39Zm-5,35.5-1.94-31.83h-1.23l-2,31.83Z" /><path class="cls-1" d="M1572.19,437.17h-7v-49h-1.66l-4.54,49h-6.33l-4.47-49h-1.58v49h-7.13V384.75a3.7,3.7,0,0,1,3.89-3.82h5.83c1.3,0,4-.14,4.32,3.82l2,20.67h.79l1.87-20.67c.22-.72.58-3.82,4.32-3.82h5.47c.94,0,4.32.22,4.32,3.82Z" /><path class="cls-1" d="M1593.29,405.49h10.15v7.2h-10.15v16.13c0,1-.08,1.15,1.44,1.15h10.51v7.2h-13c-5.84,0-6.13-3.74-6.13-6.55V387.56c0-2.88.29-6.56,6.13-6.56h13v7.21h-10.51c-1.52,0-1.44.14-1.44,1.15Z" /><path class="cls-1" d="M1657.22,378.13l3.24,59h-7l-.65-16.42h-6.12l-.58,16.42h-7.2l3.31-58.76a3.63,3.63,0,0,1,4-3.81h6.92C1657.15,374.6,1657.15,377.48,1657.22,378.13Zm-4.89,35.42-2.09-31.75h-1.16l-1.94,31.75Z" /><path class="cls-1" d="M1684.37,437.17h-11.31V430h11.74a1.29,1.29,0,0,0,1.29-1.22v-5.69l-8.2-5.55c-2.6-1.58-4.83-3.74-4.83-6.55V387.49c0-2.81.29-6.56,6.12-6.56h8.07c5.83,0,6,3.75,6,6.56v18h-7.13v-16.2c0-1,.15-1.23-1.36-1.23h-3.17c-1.51,0-1.3.22-1.3,1.23v20.3l7.92,5.62c3.6,2.66,5,3.74,5,6.62v6.27C1693.22,433.64,1691.21,437.17,1684.37,437.17Z" /><path class="cls-1" d="M1718.28,437.17H1707V430h11.74a1.29,1.29,0,0,0,1.29-1.22v-5.69l-8.2-5.55c-2.6-1.58-4.83-3.74-4.83-6.55V387.49c0-2.81.29-6.56,6.12-6.56h8.07c5.83,0,6,3.75,6,6.56v18H1720v-16.2c0-1,.15-1.23-1.36-1.23h-3.17c-1.51,0-1.3.22-1.3,1.23v20.3l7.92,5.62c3.6,2.66,5,3.74,5,6.62v6.27C1727.13,433.64,1725.12,437.17,1718.28,437.17Z" /><path class="cls-1" d="M1761.19,430.62c0,2.88-.22,6.62-6,6.55h-8.06c-5.84.07-6.12-3.67-6.12-6.55V387.56c0-2.88.28-6.63,6.12-6.56h8.06c5.83-.07,6,3.68,6,6.56Zm-7.13-41.26c0-1.08.07-1.3-1.44-1.3h-3.1c-1.58,0-1.36.22-1.36,1.3v39.46c0,1.08-.22,1.29,1.36,1.29h3.1c1.51,0,1.44-.21,1.44-1.29Z" /><path class="cls-1" d="M1795,420v10.66c0,2.88-.15,6.55-6,6.55h-8.13c-5.84,0-6.05-3.67-6.05-6.55V387.56c0-2.88.21-6.63,6.05-6.56h8.13c5.83-.07,6,3.68,6,6.56v17.78h-7.2v-16c0-1.08.21-1.3-1.3-1.3h-3.17c-1.51,0-1.36.22-1.36,1.3v39.46c0,1-.15,1.15,1.36,1.15h3.17c1.51,0,1.3-.14,1.3-1.15V420Z" /><path class="cls-1" d="M1815.76,437.17h-7V380.93h7Z" /><path class="cls-1" d="M1846.72,384.39l3.31,52.78h-7.2l-.57-10.15h-6.12l-.65,10.15h-7.2l3.38-52.42a3.59,3.59,0,0,1,3.89-3.82h6.91C1846.65,380.93,1846.65,383.81,1846.72,384.39Zm-5,35.5-1.94-31.83h-1.22l-2,31.83Z" /><path class="cls-1" d="M1879.27,388.06h-6.34v49.11h-7.2V388.06h-6.27V381h19.81Z" /><path class="cls-1" d="M1898.92,437.17h-7.06V380.93h7.06Z" /><path class="cls-1" d="M1933.05,430.62c0,2.88-.22,6.62-6,6.55h-8.06c-5.84.07-6.13-3.67-6.13-6.55V387.56c0-2.88.29-6.63,6.13-6.56H1927c5.83-.07,6,3.68,6,6.56Zm-7.13-41.26c0-1.08.07-1.3-1.44-1.3h-3.1c-1.58,0-1.36.22-1.36,1.3v39.46c0,1.08-.22,1.29,1.36,1.29h3.1c1.51,0,1.44-.21,1.44-1.29Z" /><path class="cls-1" d="M1956,388.28h-1.59v48.89h-7.13V384.75a3.74,3.74,0,0,1,4-3.75h7.49a4,4,0,0,1,4.18,4l4.17,44.93h1.59V381h7.06v52.28a3.73,3.73,0,0,1-3.89,3.89h-7.42c-4.1,0-4.18-4.32-4.25-5.33Z" /></svg>
